<svg width="113" height="113" viewBox="0 0 113 113" fill="none" xmlns="http://www.w3.org/2000/svg">
<g id="carbon:gui-management">
<path id="Vector" d="M105.175 84.6284V77.6284H97.8213C97.3699 75.4375 96.5 73.3542 95.2593 71.4929L100.474 66.2779L95.5253 61.3289L90.3103 66.5439C88.449 65.3032 86.3657 64.4333 84.1748 63.9819V56.6284H77.1748V63.9819C74.9839 64.4333 72.9006 65.3032 71.0393 66.5439L65.8243 61.3289L60.8753 66.2779L66.0903 71.4929C64.8496 73.3542 63.9797 75.4375 63.5283 77.6284H56.1748V84.6284H63.5283C63.9797 86.8193 64.8496 88.9026 66.0903 90.7639L60.8753 95.9789L65.8243 100.928L71.0393 95.7129C72.9006 96.9536 74.9839 97.8235 77.1748 98.2749V105.628H84.1748V98.2749C86.3657 97.8235 88.449 96.9536 90.3103 95.7129L95.5253 100.928L100.474 95.9789L95.2593 90.7639C96.5 88.9026 97.3699 86.8193 97.8213 84.6284H105.175ZM80.6748 91.6284C78.5981 91.6284 76.568 91.0126 74.8413 89.8589C73.1146 88.7051 71.7688 87.0652 70.9741 85.1466C70.1793 83.228 69.9714 81.1168 70.3766 79.08C70.7817 77.0432 71.7817 75.1722 73.2502 73.7038C74.7186 72.2353 76.5896 71.2353 78.6264 70.8302C80.6632 70.425 82.7744 70.633 84.693 71.4277C86.6116 72.2224 88.2515 73.5682 89.4052 75.2949C90.559 77.0217 91.1748 79.0517 91.1748 81.1284C91.172 83.9123 90.0649 86.5814 88.0964 88.55C86.1278 90.5185 83.4587 91.6256 80.6748 91.6284Z" fill="url(#paint0_linear_3001_4100)"/>
<path id="Vector_2" d="M98.1748 14.6284H14.1748C12.3189 14.6303 10.5395 15.3684 9.2271 16.6807C7.91475 17.9931 7.17666 19.7725 7.1748 21.6284V91.6284C7.17666 93.4844 7.91475 95.2638 9.2271 96.5761C10.5395 97.8885 12.3189 98.6266 14.1748 98.6284H49.1748V91.6284H14.1748V42.6284H98.1748V53.1284H105.175V21.6284C105.173 19.7725 104.435 17.9931 103.123 16.6807C101.81 15.3684 100.031 14.6303 98.1748 14.6284ZM98.1748 35.6284H14.1748V21.6284H98.1748V35.6284Z" fill="url(#paint1_linear_3001_4100)"/>
<path id="Vector_3" d="M70.1748 32.1284C72.1078 32.1284 73.6748 30.5614 73.6748 28.6284C73.6748 26.6954 72.1078 25.1284 70.1748 25.1284C68.2418 25.1284 66.6748 26.6954 66.6748 28.6284C66.6748 30.5614 68.2418 32.1284 70.1748 32.1284Z" fill="url(#paint2_linear_3001_4100)"/>
<path id="Vector_4" d="M80.6748 32.1284C82.6078 32.1284 84.1748 30.5614 84.1748 28.6284C84.1748 26.6954 82.6078 25.1284 80.6748 25.1284C78.7418 25.1284 77.1748 26.6954 77.1748 28.6284C77.1748 30.5614 78.7418 32.1284 80.6748 32.1284Z" fill="url(#paint3_linear_3001_4100)"/>
<path id="Vector_5" d="M91.1748 32.1284C93.1078 32.1284 94.6748 30.5614 94.6748 28.6284C94.6748 26.6954 93.1078 25.1284 91.1748 25.1284C89.2418 25.1284 87.6748 26.6954 87.6748 28.6284C87.6748 30.5614 89.2418 32.1284 91.1748 32.1284Z" fill="url(#paint4_linear_3001_4100)"/>
</g>
<defs>
<linearGradient id="paint0_linear_3001_4100" x1="54.0274" y1="41.3159" x2="122.075" y2="75.4873" gradientUnits="userSpaceOnUse">
<stop offset="0.015" stop-color="white"/>
<stop offset="0.375847" stop-color="#9AE0F1" stop-opacity="0.8"/>
<stop offset="0.652133" stop-color="#8C8ED2"/>
<stop offset="0.965" stop-color="white"/>
</linearGradient>
<linearGradient id="paint1_linear_3001_4100" x1="2.87999" y1="-11.6216" x2="129.75" y2="62.7064" gradientUnits="userSpaceOnUse">
<stop offset="0.015" stop-color="white"/>
<stop offset="0.375847" stop-color="#9AE0F1" stop-opacity="0.8"/>
<stop offset="0.652133" stop-color="#8C8ED2"/>
<stop offset="0.965" stop-color="white"/>
</linearGradient>
<linearGradient id="paint2_linear_3001_4100" x1="66.368" y1="22.9409" x2="76.0892" y2="27.8225" gradientUnits="userSpaceOnUse">
<stop offset="0.015" stop-color="white"/>
<stop offset="0.375847" stop-color="#9AE0F1" stop-opacity="0.8"/>
<stop offset="0.652133" stop-color="#8C8ED2"/>
<stop offset="0.965" stop-color="white"/>
</linearGradient>
<linearGradient id="paint3_linear_3001_4100" x1="76.868" y1="22.9409" x2="86.5892" y2="27.8225" gradientUnits="userSpaceOnUse">
<stop offset="0.015" stop-color="white"/>
<stop offset="0.375847" stop-color="#9AE0F1" stop-opacity="0.8"/>
<stop offset="0.652133" stop-color="#8C8ED2"/>
<stop offset="0.965" stop-color="white"/>
</linearGradient>
<linearGradient id="paint4_linear_3001_4100" x1="87.368" y1="22.9409" x2="97.0892" y2="27.8225" gradientUnits="userSpaceOnUse">
<stop offset="0.015" stop-color="white"/>
<stop offset="0.375847" stop-color="#9AE0F1" stop-opacity="0.8"/>
<stop offset="0.652133" stop-color="#8C8ED2"/>
<stop offset="0.965" stop-color="white"/>
</linearGradient>
</defs>
</svg>
