<svg width="113" height="113" viewBox="0 0 113 113" fill="none" xmlns="http://www.w3.org/2000/svg">
<g id="clarity:launchpad-line" clip-path="url(#clip0_3001_4123)">
<path id="Vector" d="M87.9437 106.577H25.7215C24.8963 106.577 24.105 106.904 23.5216 107.488C22.9381 108.071 22.6104 108.863 22.6104 109.688C22.6104 110.513 22.9381 111.304 23.5216 111.888C24.105 112.471 24.8963 112.799 25.7215 112.799H87.9437C88.7688 112.799 89.5601 112.471 90.1436 111.888C90.727 111.304 91.0548 110.513 91.0548 109.688C91.0548 108.863 90.727 108.071 90.1436 107.488C89.5601 106.904 88.7688 106.577 87.9437 106.577ZM56.8326 30.4478C55.1404 30.4478 53.4863 30.9495 52.0794 31.8896C50.6724 32.8297 49.5758 34.1659 48.9283 35.7292C48.2807 37.2926 48.1113 39.0128 48.4414 40.6724C48.7715 42.332 49.5864 43.8565 50.7829 45.053C51.9794 46.2495 53.5038 47.0644 55.1635 47.3945C56.8231 47.7246 58.5433 47.5552 60.1066 46.9076C61.67 46.2601 63.0062 45.1635 63.9463 43.7565C64.8864 42.3496 65.3881 40.6954 65.3881 39.0033C65.3881 36.7342 64.4867 34.5581 62.8823 32.9536C61.2778 31.3491 59.1016 30.4478 56.8326 30.4478ZM56.8326 42.55C55.9453 42.467 55.1209 42.0558 54.5208 41.3969C53.9207 40.7381 53.5881 39.8789 53.5881 38.9878C53.5881 38.0966 53.9207 37.2375 54.5208 36.5786C55.1209 35.9197 55.9453 35.5085 56.8326 35.4255C57.3283 35.3791 57.8283 35.4368 58.3006 35.5947C58.7728 35.7526 59.2069 36.0074 59.575 36.3427C59.9431 36.678 60.2372 37.0864 60.4384 37.5419C60.6397 37.9974 60.7436 38.4898 60.7436 38.9878C60.7436 39.4857 60.6397 39.9781 60.4384 40.4336C60.2372 40.8891 59.9431 41.2975 59.575 41.6328C59.2069 41.9681 58.7728 42.2229 58.3006 42.3808C57.8283 42.5387 57.3283 42.5964 56.8326 42.55Z" fill="url(#paint0_linear_3001_4123)"/>
<path id="Vector_2" d="M90.2782 70.6429C88.515 64.3774 85.4986 58.5351 81.4115 53.4695L80.5404 52.3806C80.5404 51.3229 80.5404 50.2651 80.3848 49.2695C78.2693 14.3629 59.2915 2.66508 58.5137 2.1673C58.0408 1.89424 57.5043 1.75049 56.9582 1.75049C56.4121 1.75049 55.8756 1.89424 55.4026 2.1673C54.5937 2.66508 35.6471 14.3629 33.6248 49.1451C33.6248 50.1406 33.6248 51.1673 33.4693 52.2562L32.4426 53.5317C24.53 63.2669 20.6944 75.6879 21.7404 88.1895C21.8105 88.9652 22.1689 89.6864 22.745 90.2105C23.321 90.7347 24.0727 91.0238 24.8515 91.0206H38.6337C39.4546 93.6945 40.4952 96.296 41.7448 98.7984C42.015 99.279 42.4079 99.6791 42.8835 99.9579C43.3591 100.237 43.9002 100.384 44.4515 100.385H69.2782C69.8294 100.384 70.3706 100.237 70.8462 99.9579C71.3217 99.6791 71.7147 99.279 71.9848 98.7984C73.2386 96.2978 74.2793 93.696 75.0959 91.0206H88.7537C89.5325 91.0238 90.2842 90.7347 90.8602 90.2105C91.4363 89.6864 91.7947 88.9652 91.8648 88.1895C92.4144 82.2928 91.8766 76.3453 90.2782 70.6429ZM67.3182 94.1317H46.5048C44.2768 88.9013 42.6183 83.4461 41.5582 77.8606L35.3359 79.1051C35.7715 81.1273 36.2071 82.994 36.6737 84.7673H27.7759C27.5768 77.128 29.5164 69.5851 33.3759 62.9895C33.3759 64.7006 33.5937 66.4117 33.7804 68.154L40.0026 67.5006C39.3782 61.5376 39.2637 55.5321 39.6604 49.5495C41.2782 23.6651 52.6337 12.1229 56.8337 8.66952C61.1271 12.154 72.5448 23.6651 74.1315 49.5806C75.2029 64.7529 72.8752 79.9731 67.3182 94.1317ZM77.0248 84.7984C78.8339 77.7245 79.9694 70.4952 80.4159 63.2073C84.1999 69.7606 86.0952 77.2338 85.8915 84.7984H77.0248Z" fill="url(#paint1_linear_3001_4123)"/>
</g>
<defs>
<linearGradient id="paint0_linear_3001_4123" x1="19.6108" y1="4.71303" x2="120.974" y2="47.0186" gradientUnits="userSpaceOnUse">
<stop offset="0.015" stop-color="white"/>
<stop offset="0.375847" stop-color="#9AE0F1" stop-opacity="0.8"/>
<stop offset="0.652133" stop-color="#8C8ED2"/>
<stop offset="0.965" stop-color="white"/>
</linearGradient>
<linearGradient id="paint1_linear_3001_4123" x1="18.4815" y1="-29.0728" x2="127.088" y2="9.91027" gradientUnits="userSpaceOnUse">
<stop offset="0.015" stop-color="white"/>
<stop offset="0.375847" stop-color="#9AE0F1" stop-opacity="0.8"/>
<stop offset="0.652133" stop-color="#8C8ED2"/>
<stop offset="0.965" stop-color="white"/>
</linearGradient>
<clipPath id="clip0_3001_4123">
<rect width="112" height="112" fill="white" transform="translate(0.833008 0.798828)"/>
</clipPath>
</defs>
</svg>
