<svg width="112" height="113" viewBox="0 0 112 113" fill="none" xmlns="http://www.w3.org/2000/svg">
<g id="fluent:people-community-24-filled">
<path id="Vector" d="M35.0036 37.9617C38.7166 37.9617 42.2776 36.4867 44.9031 33.8612C47.5286 31.2357 49.0036 27.6747 49.0036 23.9617C49.0036 20.2486 47.5286 16.6877 44.9031 14.0622C42.2776 11.4367 38.7166 9.96167 35.0036 9.96167C31.2906 9.96167 27.7296 11.4367 25.1041 14.0622C22.4786 16.6877 21.0036 20.2486 21.0036 23.9617C21.0036 27.6747 22.4786 31.2357 25.1041 33.8612C27.7296 36.4867 31.2906 37.9617 35.0036 37.9617ZM9.33691 50.879C9.33691 46.315 13.0282 42.6283 17.5876 42.6283H39.8336C38.1928 45.4648 37.3314 48.6848 37.3369 51.9617C37.3338 54.6104 37.8958 57.2293 38.9854 59.6436C40.075 62.0578 41.6672 64.2118 43.6556 65.9617H38.5876C35.9574 65.9618 33.3899 66.7642 31.2278 68.2618C29.0656 69.7593 27.4117 71.8808 26.4869 74.343C19.4962 72.635 15.1609 68.8223 12.6082 64.5757C9.33691 59.1297 9.33691 53.5297 9.33691 52.5543V50.879ZM74.6702 51.9617C74.6759 48.6848 73.8146 45.4647 72.1736 42.6283H94.4196C98.9836 42.6283 102.67 46.3197 102.67 50.879V52.559C102.67 53.525 102.67 59.1297 99.4036 64.5757C96.8463 68.8223 92.5109 72.635 85.5203 74.343C84.596 71.8805 82.9423 69.7586 80.78 68.2609C78.6177 66.7633 76.0499 65.9611 73.4196 65.9617H68.3516C70.34 64.2118 71.9321 62.0578 73.0218 59.6436C74.1114 57.2293 74.6734 54.6104 74.6702 51.9617ZM91.0036 23.9617C91.0036 27.6747 89.5286 31.2357 86.9031 33.8612C84.2776 36.4867 80.7166 37.9617 77.0036 37.9617C73.2906 37.9617 69.7296 36.4867 67.1041 33.8612C64.4786 31.2357 63.0036 27.6747 63.0036 23.9617C63.0036 20.2486 64.4786 16.6877 67.1041 14.0622C69.7296 11.4367 73.2906 9.96167 77.0036 9.96167C80.7166 9.96167 84.2776 11.4367 86.9031 14.0622C89.5286 16.6877 91.0036 20.2486 91.0036 23.9617ZM30.3369 78.879C30.3369 74.315 34.0282 70.6283 38.5876 70.6283H73.4196C77.9789 70.6283 81.6702 74.3197 81.6702 78.879V80.559C81.6702 81.525 81.6702 87.1297 78.4036 92.5757C74.9362 98.3343 68.1976 103.295 56.0036 103.295C43.8096 103.295 37.0662 98.3343 33.6036 92.5757C30.3369 87.1297 30.3369 81.5297 30.3369 80.5543V78.879ZM56.0036 65.9617C57.8421 65.9617 59.6626 65.5996 61.3612 64.896C63.0597 64.1924 64.6031 63.1612 65.9031 61.8612C67.2031 60.5611 68.2343 59.0178 68.9379 57.3192C69.6415 55.6207 70.0036 53.8002 70.0036 51.9617C70.0036 50.1232 69.6415 48.3027 68.9379 46.6041C68.2343 44.9055 67.2031 43.3622 65.9031 42.0622C64.6031 40.7622 63.0597 39.7309 61.3612 39.0274C59.6626 38.3238 57.8421 37.9617 56.0036 37.9617C52.2906 37.9617 48.7296 39.4367 46.1041 42.0622C43.4786 44.6877 42.0036 48.2486 42.0036 51.9617C42.0036 55.6747 43.4786 59.2357 46.1041 61.8612C48.7296 64.4867 52.2906 65.9617 56.0036 65.9617Z" fill="url(#paint0_linear_3001_4092)"/>
</g>
<defs>
<linearGradient id="paint0_linear_3001_4092" x1="5.24661" y1="-19.205" x2="134.862" y2="45.8834" gradientUnits="userSpaceOnUse">
<stop offset="0.015" stop-color="white"/>
<stop offset="0.375847" stop-color="#9AE0F1" stop-opacity="0.8"/>
<stop offset="0.652133" stop-color="#8C8ED2"/>
<stop offset="0.965" stop-color="white"/>
</linearGradient>
</defs>
</svg>
