<?xml version="1.0" standalone="no"?>
<!DOCTYPE svg PUBLIC "-//W3C//DTD SVG 20010904//EN"
 "http://www.w3.org/TR/2001/REC-SVG-20010904/DTD/svg10.dtd">
<svg version="1.0" xmlns="http://www.w3.org/2000/svg"
 width="1024.000000pt" height="1536.000000pt" viewBox="0 0 1024.000000 1536.000000"
 preserveAspectRatio="xMidYMid meet">

<g transform="translate(0.000000,1536.000000) scale(0.100000,-0.100000)"
fill="#000000" stroke="none">
<path d="M9328 13293 c7 -3 16 -2 19 1 4 3 -2 6 -13 5 -11 0 -14 -3 -6 -6z"/>
<path d="M8458 13203 c6 -2 18 -2 25 0 6 3 1 5 -13 5 -14 0 -19 -2 -12 -5z"/>
<path d="M8305 13170 c-13 -5 -14 -9 -5 -9 8 0 24 4 35 9 13 5 14 9 5 9 -8 0
-24 -4 -35 -9z"/>
<path d="M8689 13176 c-2 -2 -31 -7 -64 -10 -72 -7 -67 -6 -225 -44 -69 -17
-163 -45 -210 -62 -47 -17 -103 -36 -125 -41 -22 -6 -49 -16 -60 -23 -24 -15
-75 -30 -93 -27 -8 1 -19 -2 -25 -7 -7 -6 -40 -18 -75 -27 -34 -10 -65 -22
-68 -26 -3 -5 -20 -9 -37 -10 -32 -1 -31 -1 11 -16 52 -18 49 -28 -4 -14 -47
12 -138 23 -179 22 l-30 -1 35 19 c19 10 96 40 170 66 191 67 191 67 187 72
-6 5 -329 -108 -522 -184 -158 -63 -461 -208 -495 -238 -8 -7 -44 -27 -80 -45
-201 -101 -524 -329 -850 -601 -102 -85 -190 -158 -197 -162 -6 -4 -32 2 -56
14 -27 13 -54 19 -68 16 -51 -13 -238 -197 -308 -304 -35 -52 -38 -82 -15
-123 l17 -27 -210 -209 c-204 -204 -285 -293 -527 -579 -65 -77 -131 -150
-146 -162 -23 -19 -57 -25 -266 -47 -131 -14 -320 -32 -419 -41 -99 -9 -272
-25 -385 -36 -595 -58 -713 -68 -721 -63 -14 8 -10 42 7 69 20 30 10 63 -21
71 -48 12 -242 -66 -425 -171 -223 -127 -566 -424 -785 -680 -154 -179 -225
-277 -225 -307 0 -52 84 -157 210 -262 110 -92 150 -116 190 -116 32 0 46 11
145 113 61 62 117 118 126 125 13 10 45 1 179 -53 340 -137 670 -302 902 -451
l66 -44 -32 -32 c-35 -35 -131 -200 -142 -242 -3 -14 -1 -41 6 -61 14 -42 6
-59 -75 -145 -28 -30 -63 -72 -79 -93 -15 -21 -91 -101 -167 -178 -83 -84
-139 -148 -139 -160 0 -33 44 -92 149 -200 118 -123 119 -102 -10 -236 -20
-21 -63 -69 -95 -108 -32 -38 -69 -81 -81 -95 -13 -14 -30 -32 -37 -40 -30
-33 -85 -110 -79 -110 3 0 -2 -10 -13 -22 -29 -32 -54 -75 -54 -90 0 -8 -9
-20 -19 -28 -11 -7 -18 -17 -15 -22 3 -4 1 -8 -4 -8 -6 0 -13 -11 -16 -25 -3
-13 -20 -40 -37 -60 -17 -19 -26 -35 -19 -35 6 0 0 -12 -14 -27 -75 -81 -105
-117 -101 -124 3 -3 -2 -12 -10 -19 -8 -7 -15 -18 -15 -26 0 -7 -15 -29 -32
-47 -46 -48 -77 -87 -77 -94 1 -3 -6 -10 -13 -14 -8 -4 -21 -27 -28 -51 -7
-24 -19 -50 -26 -58 -6 -8 -18 -32 -25 -54 -8 -21 -20 -41 -26 -43 -7 -3 -13
-9 -13 -13 0 -16 -115 -202 -137 -224 -13 -11 -23 -26 -23 -33 0 -7 -14 -28
-31 -48 -17 -19 -31 -47 -31 -60 0 -14 -4 -28 -9 -31 -5 -3 -9 -18 -9 -34 0
-22 -7 -33 -29 -44 -41 -22 -57 -60 -33 -85 9 -9 10 -17 3 -24 -5 -5 -7 -16
-4 -24 3 -9 -2 -16 -15 -19 -11 -4 -22 -17 -25 -33 -3 -14 -15 -37 -27 -51
-17 -20 -21 -34 -17 -68 2 -23 0 -45 -5 -48 -6 -4 -6 -9 2 -14 8 -5 7 -11 -4
-23 -19 -18 -22 -107 -5 -107 8 0 8 -4 -1 -15 -9 -11 -9 -22 -2 -44 8 -22 7
-31 -1 -34 -6 -2 -10 -21 -9 -45 2 -23 -2 -51 -8 -62 -9 -16 -8 -20 5 -20 24
0 18 -46 -10 -75 -14 -14 -21 -25 -16 -25 6 0 8 -7 5 -15 -4 -8 -2 -15 4 -15
6 0 8 -8 5 -19 -3 -10 0 -21 5 -25 11 -7 80 -18 102 -17 8 1 24 1 35 1 25 1
115 28 95 30 -12 0 -11 3 3 11 29 17 187 68 187 61 0 -4 4 -2 8 3 12 17 117
65 173 80 30 8 55 19 57 25 2 5 12 10 23 10 10 0 19 5 19 10 0 6 8 10 18 10
20 1 54 24 46 33 -3 3 5 8 18 13 21 6 32 8 75 13 19 2 60 45 56 59 -3 7 4 12
16 12 11 0 27 10 35 22 9 12 16 17 16 10 0 -7 11 -5 33 8 17 11 38 20 45 20 8
0 25 9 39 20 14 11 32 20 40 20 20 0 70 40 52 41 -8 0 -4 5 9 11 12 6 22 15
22 20 0 4 5 8 11 8 15 0 40 27 37 39 -4 15 62 70 92 78 14 3 47 26 74 50 26
23 52 43 58 43 5 0 7 4 4 9 -3 5 4 11 17 15 12 3 39 21 60 41 21 20 41 34 44
32 2 -3 23 13 46 34 23 21 50 41 60 45 9 3 15 10 12 15 -4 5 5 14 19 20 13 6
23 17 21 23 -2 6 10 22 28 36 17 14 28 18 23 10 -4 -8 1 -4 12 9 15 18 21 21
25 10 5 -11 6 -10 4 2 -2 16 54 79 71 79 5 0 13 7 16 16 3 8 10 12 16 9 6 -4
7 1 3 11 -4 10 -2 15 3 11 17 -10 99 77 89 93 -4 6 3 10 14 10 10 0 31 15 45
32 14 18 33 40 41 49 8 9 15 19 15 24 0 9 52 55 63 55 5 0 5 -6 1 -12 -4 -8
-3 -10 2 -5 5 5 9 12 10 15 3 27 17 41 32 33 10 -5 42 -8 72 -7 l55 1 3 38 c3
35 5 37 36 37 25 0 42 9 65 32 17 17 31 35 31 40 0 4 4 8 10 8 9 0 35 19 65
47 10 10 17 8 31 -9 62 -69 312 -251 413 -301 88 -43 99 -40 207 66 53 50 102
103 109 117 17 30 114 133 207 220 l67 62 45 -26 c24 -14 53 -26 64 -26 19 0
139 86 255 182 32 26 63 48 70 47 17 0 124 -172 186 -297 113 -227 200 -544
203 -743 l2 -87 -62 -83 c-46 -62 -60 -88 -56 -103 15 -47 193 -223 328 -325
93 -71 107 -69 215 21 403 335 845 1009 960 1468 15 59 30 183 23 194 -3 5 -5
335 -5 733 l0 724 23 32 c22 30 148 170 395 441 141 155 246 272 363 404 124
140 124 141 168 107 l35 -27 41 28 c46 32 190 193 256 286 50 71 50 93 0 145
-22 23 -28 36 -21 45 5 7 57 74 114 148 58 74 120 158 138 185 19 28 61 90 94
138 87 129 207 359 267 510 70 175 182 489 177 494 -3 2 -37 -86 -77 -197 -63
-170 -75 -198 -88 -188 -12 11 -14 8 -8 -18 8 -36 -22 -120 -95 -265 -44 -88
-112 -203 -129 -219 -16 -14 -49 -78 -43 -83 3 -4 1 -7 -6 -7 -7 0 -10 -4 -7
-9 3 -5 -4 -19 -17 -32 -12 -13 -35 -43 -51 -66 -16 -24 -33 -43 -38 -43 -5 0
-6 -6 -2 -12 4 -7 4 -10 -1 -6 -4 4 -16 -3 -26 -16 -22 -28 -25 -40 -6 -30 7
4 9 3 4 -2 -5 -5 -12 -9 -17 -9 -16 0 -129 -88 -124 -97 3 -5 13 -7 22 -3 11
4 8 -3 -7 -19 -14 -15 -30 -26 -37 -26 -17 0 -34 32 -33 62 0 18 3 15 12 -12
12 -34 28 -43 36 -19 2 7 -1 9 -8 5 -23 -14 -10 15 16 37 69 56 139 127 178
177 65 84 243 375 287 468 33 70 65 182 51 182 -2 0 -28 -11 -58 -25 -102 -49
-243 -233 -377 -495 -27 -52 -46 -84 -42 -70 16 59 122 245 221 387 64 93 122
150 191 189 20 11 39 29 40 39 4 16 2 16 -28 -1 -18 -11 -53 -37 -78 -59 -25
-22 -43 -34 -38 -27 17 28 130 113 157 119 30 6 40 23 14 23 -36 0 -91 -34
-158 -97 l-72 -67 64 66 c69 72 148 122 177 112 11 -3 7 2 -8 10 -15 9 -25 22
-23 29 27 83 92 263 110 302 19 43 43 137 62 250 3 16 14 48 25 71 l19 42 -29
71 c-17 39 -28 71 -26 71 7 0 56 -102 81 -170 14 -36 29 -94 33 -130 l9 -65
-3 80 c-2 60 -10 96 -31 145 -34 80 -80 174 -107 218 -11 17 -17 32 -15 32 3
0 15 -16 27 -35 16 -26 28 -34 46 -33 28 3 28 1 8 39 -8 17 -14 33 -11 35 5 6
55 -105 79 -176 18 -54 19 -54 14 -14 -2 23 -24 89 -49 148 -25 58 -43 106
-42 106 2 0 17 -24 35 -52 17 -29 28 -42 24 -28 -3 14 -7 27 -7 30 -1 9 33
229 48 310 8 46 22 155 23 177 0 12 12 100 26 195 14 95 28 205 31 243 4 39
15 129 26 200 19 132 34 343 23 332 -8 -8 -94 -214 -101 -242 -8 -32 -83 -187
-107 -220 -11 -16 -22 -33 -22 -37 -1 -5 -2 -12 -3 -18 0 -5 -11 -19 -24 -32
-12 -13 -32 -39 -44 -58 -12 -19 -42 -55 -67 -80 -24 -24 -43 -47 -41 -51 3
-3 -7 -16 -20 -27 -14 -12 -25 -26 -25 -32 0 -5 -7 -10 -16 -10 -8 0 -13 -4
-10 -8 3 -5 -19 -31 -48 -59 -44 -41 -57 -48 -72 -40 -12 6 -7 -3 11 -24 74
-83 62 -76 -50 28 -234 218 -517 424 -717 523 -59 29 -57 37 3 11 24 -11 46
-17 49 -13 3 4 21 16 40 26 19 11 42 25 50 33 53 47 139 108 232 162 59 35
112 69 119 77 6 8 17 14 23 14 12 0 172 92 189 109 8 8 2 11 -19 11 -17 0 -33
-2 -35 -4z m-1137 -308 c-4 -4 -19 -9 -32 -12 -14 -2 -24 -9 -22 -15 1 -7 -25
-11 -80 -11 -87 0 -96 7 -26 20 24 5 52 12 63 15 20 7 20 6 1 -9 -17 -14 -17
-16 -3 -16 9 0 21 8 26 18 6 12 21 18 45 18 20 0 33 -3 28 -8z m107 -14 c2 -2
-12 -4 -32 -4 -19 0 -42 -7 -51 -15 -8 -8 -23 -15 -33 -14 -14 0 -15 2 -3 6 8
3 26 14 39 24 21 17 63 18 80 3z m48 -10 c-3 -3 -12 -4 -19 -1 -8 3 -5 6 6 6
11 1 17 -2 13 -5z m-274 -41 c-29 -2 -78 -2 -110 0 -32 2 -8 3 52 3 61 0 87
-1 58 -3z m90 -10 c-7 -2 -19 -2 -25 0 -7 3 -2 5 12 5 14 0 19 -2 13 -5z
m-338 -28 c-27 -13 -54 -24 -60 -24 -5 1 13 11 40 24 28 13 55 24 60 24 6 -1
-12 -11 -40 -24z m865 -48 c249 -127 429 -258 665 -485 97 -94 123 -127 38
-48 -18 16 -33 25 -33 18 0 -7 -7 -12 -15 -12 -18 0 -19 -11 -2 -29 10 -11 8
-11 -13 -1 -17 8 -7 -6 30 -46 l55 -58 -61 52 c-34 28 -67 59 -75 68 -17 21
-241 203 -339 276 -82 62 -186 126 -325 201 -77 41 -93 57 -32 32 12 -5 17 -3
15 6 -2 8 7 15 20 17 26 4 29 -6 5 -24 -16 -12 -16 -13 -2 -14 16 0 56 37 48
44 -2 2 -26 15 -54 29 -27 14 -45 26 -40 26 6 1 57 -23 115 -52z m-47 -103
c139 -69 252 -143 399 -261 126 -100 307 -262 348 -309 l25 -29 -35 30 c-19
16 -57 51 -85 77 -27 26 -57 46 -66 45 -8 -2 -33 -22 -54 -45 -28 -31 -44 -42
-58 -38 -14 3 -7 -9 24 -41 39 -41 40 -43 9 -19 -117 92 -165 124 -255 167
-159 78 -228 93 -435 93 -155 1 -184 -2 -257 -23 -208 -59 -387 -194 -512
-386 -28 -42 -51 -82 -51 -88 0 -6 -3 -7 -6 -4 -10 10 69 136 130 206 96 110
241 219 336 253 17 5 30 14 30 19 0 5 21 19 48 31 26 11 41 22 35 25 -11 4 20
34 82 81 6 4 35 28 65 53 30 24 72 56 92 69 21 14 38 28 38 31 0 16 84 61 106
56 13 -2 24 -3 24 -1 0 2 -30 20 -67 39 -103 54 -33 30 90 -31z m-1085 -26 c7
-7 12 -20 12 -31 0 -22 -78 -145 -105 -167 -11 -8 -5 3 12 25 44 56 83 133 76
151 -3 8 -19 14 -37 15 -30 1 -30 1 -6 9 35 11 35 11 48 -2z m-91 -44 c-3 -3
-12 -4 -19 -1 -8 3 -5 6 6 6 11 1 17 -2 13 -5z m1118 -275 c252 -31 470 -153
629 -351 35 -44 76 -102 91 -131 33 -61 24 -54 -28 24 -21 31 -47 65 -59 75
l-22 19 17 -24 c14 -20 14 -26 2 -38 -11 -11 -19 -11 -35 -3 -16 9 -14 1 13
-42 123 -191 170 -389 147 -606 -38 -355 -250 -624 -570 -723 -109 -34 -312
-34 -420 -1 -103 33 -222 93 -301 152 -231 173 -381 507 -366 810 3 60 2 96
-3 85 -5 -11 -9 -36 -10 -55 -1 -19 -4 -29 -7 -22 -3 7 -15 23 -28 36 -20 20
-21 28 -14 72 12 73 9 85 -8 34 -24 -72 -29 -297 -9 -403 35 -185 137 -388
270 -537 l58 -65 -65 66 c-237 243 -347 621 -272 939 40 168 141 347 259 458
82 76 139 115 229 157 163 75 312 97 502 74z m-2270 -449 c7 -12 -2 -12 -30 0
-19 8 -19 9 2 9 12 1 25 -3 28 -9z m1296 -97 c-12 -20 -14 -14 -5 12 4 9 9 14
11 11 3 -2 0 -13 -6 -23z m2183 -29 c3 -8 2 -12 -4 -9 -6 3 -10 10 -10 16 0
14 7 11 14 -7z m-2237 -166 c-3 -7 -5 -2 -5 12 0 14 2 19 5 13 2 -7 2 -19 0
-25z m-779 -430 c86 -55 200 -133 252 -171 102 -76 350 -277 350 -284 0 -5
-50 33 -160 123 -115 93 -258 197 -445 321 -93 62 -166 113 -162 113 5 0 79
-46 165 -102z m82 -214 c0 -3 -13 4 -30 16 -16 12 -30 24 -30 26 0 3 14 -4 30
-16 17 -12 30 -24 30 -26z m80 -61 c0 -7 -58 36 -66 49 -4 7 9 -1 29 -16 20
-16 37 -30 37 -33z m171 -120 c13 -16 12 -17 -3 -4 -17 13 -22 21 -14 21 2 0
10 -8 17 -17z m2279 -197 c0 -2 -8 -10 -17 -17 -16 -13 -17 -12 -4 4 13 16 21
21 21 13z m-4274 -82 c-9 -8 -16 -21 -16 -28 0 -17 -58 -33 -145 -40 -261 -22
-782 -70 -945 -87 -753 -78 -730 -76 -730 -54 0 11 11 15 38 15 37 0 283 23
647 59 207 21 1071 101 1091 101 7 0 22 11 35 25 13 13 28 25 32 25 5 0 1 -7
-7 -16z m34 -1 c0 -5 -10 -19 -21 -33 l-20 -25 16 33 c15 30 25 41 25 25z
m-1891 -60 c-61 -84 -231 -243 -260 -243 -46 0 1 65 125 170 102 87 173 125
135 73z m3606 -350 c-34 -53 -370 -449 -549 -649 -50 -55 -158 -176 -241 -269
-198 -224 -214 -241 -215 -233 0 9 78 107 144 179 28 31 98 111 156 179 58 68
110 128 115 134 19 21 250 289 309 360 33 39 80 94 105 121 83 91 166 187 169
196 2 5 8 9 14 9 6 0 2 -12 -7 -27z m2254 -99 c-12 -38 -21 -81 -21 -96 0 -16
-4 -28 -9 -28 -5 0 -9 7 -9 16 0 22 51 187 56 181 2 -2 -5 -35 -17 -73z m80
-101 c-32 -42 -42 -52 -50 -47 -5 2 6 18 24 34 37 34 45 38 26 13z m-154 -95
c6 -8 2 -5 -7 5 -12 13 -18 34 -17 61 l2 41 6 -46 c4 -26 11 -53 16 -61z m105
18 c0 -2 -8 -10 -17 -17 -16 -13 -17 -12 -4 4 13 16 21 21 21 13z m-490 -461
c0 -5 -5 -3 -10 5 -5 8 -10 20 -10 25 0 6 5 3 10 -5 5 -8 10 -19 10 -25z m-43
-118 c1 -39 1 -40 -9 -14 -8 23 -6 57 4 57 2 0 4 -19 5 -43z m-6479 -215 l47
-44 -48 32 c-59 39 -166 138 -210 194 -29 38 32 -15 211 -182z m6451 147 c1
-15 -8 -37 -19 -50 l-20 -24 16 33 c10 21 14 47 10 75 -4 31 -3 35 3 17 5 -14
9 -37 10 -51z m-5826 -33 c141 -56 376 -163 476 -217 108 -59 231 -133 226
-137 -1 -2 -21 8 -43 22 -90 57 -433 222 -667 321 -156 65 -150 73 8 11z m802
-792 l30 -26 -40 23 c-51 28 -51 29 -34 29 8 0 28 -12 44 -26z m116 -76 l24
-20 -31 17 c-17 10 -41 26 -55 37 l-24 20 31 -17 c17 -10 41 -26 55 -37z
m4106 -15 c-3 -10 -5 -2 -5 17 0 19 2 27 5 18 2 -10 2 -26 0 -35z m-26 -70 c0
-49 2 -101 4 -118 7 -62 7 -1015 0 -1135 -4 -69 -8 -134 -9 -144 0 -11 -6 -21
-12 -23 -7 -2 -8 16 -3 59 23 196 11 1424 -14 1440 -8 5 -4 8 11 8 21 0 22 -4
23 -87z m-3423 -387 c3 -6 -22 12 -57 39 -34 27 -65 54 -69 59 -3 6 22 -12 57
-39 34 -27 65 -54 69 -59z m52 -41 c19 -19 32 -35 29 -35 -3 0 -20 16 -39 35
-19 19 -32 35 -29 35 3 0 20 -16 39 -35z m-1136 -124 c52 -36 130 -90 173
-120 131 -91 452 -334 563 -427 146 -122 365 -324 560 -515 161 -158 127 -138
-55 31 -320 299 -617 548 -965 812 -19 14 -89 67 -155 118 -66 50 -159 116
-207 147 -49 30 -88 57 -88 60 0 8 76 -38 174 -106z m630 -239 c48 -40 99 -77
112 -82 13 -5 24 -14 24 -20 0 -12 -8 -8 -60 29 -62 45 -270 213 -270 218 0 8
99 -66 194 -145z m-149 20 c91 -66 254 -202 289 -241 37 -41 5 -20 -82 52 -48
40 -139 113 -201 162 -152 119 -152 119 -121 104 14 -6 66 -41 115 -77z m206
31 c8 -10 -5 -3 -28 16 -24 18 -43 35 -43 38 0 7 55 -34 71 -54z m150 -10 c8
-9 -5 -2 -28 17 -24 18 -43 35 -43 37 0 7 56 -35 71 -54z m-3 -107 c3 -6 -22
12 -57 39 -34 27 -65 54 -69 59 -3 6 22 -12 57 -39 34 -27 65 -54 69 -59z m43
77 c13 -16 12 -17 -3 -4 -10 7 -18 15 -18 17 0 8 8 3 21 -13z m-697 -52 c28
-16 57 -26 64 -24 7 3 35 -12 63 -31 27 -20 80 -52 117 -72 37 -19 85 -53 107
-75 22 -21 72 -63 111 -92 162 -118 349 -299 349 -336 0 -6 7 -16 16 -23 8 -7
33 -35 54 -63 40 -52 32 -48 -50 25 -22 19 11 -17 73 -80 61 -64 112 -121 112
-128 0 -11 -24 -17 -62 -14 -21 2 -75 -29 -76 -43 -1 -5 -10 -11 -21 -13 -11
-2 -25 -9 -31 -17 -6 -8 -18 -11 -26 -8 -8 3 -26 -2 -40 -12 -22 -14 -23 -19
-12 -33 11 -13 11 -15 -4 -9 -12 4 -15 2 -12 -7 3 -8 1 -17 -5 -21 -6 -3 -11
-13 -11 -20 0 -19 -31 -55 -47 -55 -7 0 -12 -5 -10 -12 1 -7 -5 -13 -13 -13
-8 0 -14 -6 -12 -13 1 -7 -5 -15 -13 -18 -8 -4 -15 -12 -15 -20 0 -8 -7 -14
-16 -14 -11 0 -14 -5 -10 -16 4 -9 1 -14 -6 -12 -13 5 -52 -32 -62 -57 -3 -10
-12 -15 -21 -11 -8 3 -17 1 -20 -4 -5 -9 15 -15 38 -11 11 2 8 -9 -7 -25 -9
-9 -16 -10 -18 -3 -2 6 -21 1 -46 -14 -23 -13 -40 -26 -38 -28 2 -2 -7 -5 -21
-6 -14 0 -29 -7 -34 -15 -7 -10 -9 -10 -9 2 -1 12 -3 11 -11 -2 -5 -10 -21
-18 -34 -18 -13 0 -27 -5 -30 -10 -4 -7 -13 -6 -26 1 -14 7 -24 7 -33 0 -8 -7
-20 -6 -38 3 -23 12 -27 12 -32 -1 -3 -8 -10 -11 -16 -8 -5 3 -10 1 -10 -4 0
-6 -11 -11 -25 -11 -14 0 -25 -4 -25 -10 0 -5 -18 -13 -40 -16 -22 -4 -38 -10
-35 -14 2 -4 -7 -13 -20 -20 -13 -7 -31 -27 -39 -44 -20 -41 -65 -88 -77 -81
-5 4 -9 -1 -9 -10 0 -11 -5 -15 -16 -11 -8 3 -12 2 -9 -4 3 -6 -1 -10 -9 -10
-9 0 -16 -6 -16 -13 0 -7 -16 -20 -35 -29 -19 -8 -32 -12 -29 -7 3 5 -2 6 -10
3 -9 -3 -16 -11 -16 -16 0 -6 -7 -7 -16 -4 -10 4 -26 -1 -37 -11 -14 -13 -18
-13 -12 -3 7 13 6 13 -7 2 -8 -7 -22 -10 -31 -6 -8 3 -18 1 -21 -5 -4 -6 -13
-8 -22 -4 -12 4 -14 0 -8 -21 5 -22 3 -26 -16 -26 -11 0 -18 -4 -15 -10 3 -6
-1 -7 -9 -4 -10 4 -16 1 -16 -10 0 -9 -6 -13 -14 -10 -17 6 -36 -24 -28 -45 3
-8 0 -11 -6 -7 -6 3 -14 1 -17 -5 -4 -5 -12 -8 -19 -6 -14 6 -37 -18 -28 -29
4 -4 1 -4 -5 0 -7 4 -18 4 -25 0 -16 -10 -58 -11 -58 -2 0 4 -7 8 -15 8 -18 0
-20 16 -2 24 6 3 3 4 -9 1 -12 -3 -21 0 -22 7 -1 7 -3 25 -6 40 -6 39 4 68 22
68 13 0 12 3 -4 16 -10 8 -14 13 -7 10 15 -8 27 10 13 19 -6 4 -8 11 -5 16 4
5 1 9 -5 9 -6 0 -9 4 -5 9 3 5 1 12 -5 16 -6 4 -3 16 10 33 20 25 20 27 3 33
-10 4 -12 8 -5 8 7 1 10 6 7 11 -3 6 -1 10 6 10 8 0 8 4 -1 15 -7 9 -10 18 -6
22 3 3 6 1 6 -6 0 -7 5 -9 11 -6 6 4 8 14 5 22 -3 8 -1 11 4 8 6 -3 10 3 10
14 0 11 5 23 11 27 6 3 9 15 6 25 -3 11 -1 17 4 13 8 -5 13 9 10 29 0 4 4 7 9
7 6 0 10 5 10 11 0 6 8 23 19 37 10 15 17 38 16 52 -3 32 13 63 27 54 7 -5 9
-2 5 9 -3 9 1 23 9 32 9 8 17 23 19 33 2 9 4 17 5 17 1 0 4 12 6 28 1 15 -1
25 -6 22 -5 -3 -11 -1 -15 5 -3 5 -2 10 4 10 5 0 8 9 6 20 -5 28 -14 40 -28
40 -9 0 -8 -3 1 -8 28 -18 2 -38 -46 -37 -69 3 -70 3 -69 28 0 12 -3 46 -6 74
-3 30 -2 55 4 58 5 4 7 11 4 16 -4 5 -1 9 6 9 8 0 8 4 1 13 -8 10 -6 21 8 45
11 18 15 32 10 32 -6 0 -6 10 0 28 19 49 33 72 46 70 14 -3 64 51 64 69 0 6 5
15 12 19 7 5 9 2 4 -7 -4 -8 15 11 43 41 28 30 51 58 51 62 0 4 16 23 37 43
20 19 33 35 30 35 -3 0 0 12 8 27 8 15 12 30 9 35 -3 4 0 8 6 8 7 0 10 6 7 13
-2 6 9 28 24 48 16 20 29 42 29 48 0 5 9 15 20 21 12 6 25 21 31 33 20 44 38
71 53 79 9 5 16 15 16 22 0 8 7 17 16 20 8 3 13 10 10 14 -3 5 19 40 48 79 43
57 50 72 38 79 -11 8 -10 10 8 11 13 1 46 -11 74 -26z m771 -261 c10 -11 16
-20 13 -20 -3 0 -13 9 -23 20 -10 11 -16 20 -13 20 3 0 13 -9 23 -20z m3572
-362 c-3 -8 -6 -5 -6 6 -1 11 2 17 5 13 3 -3 4 -12 1 -19z m-1541 -363 c59
-123 118 -304 149 -455 27 -132 44 -343 29 -352 -5 -3 -10 36 -10 88 -4 192
-98 552 -200 760 -58 118 -63 130 -33 84 12 -19 42 -76 65 -125z m-1720 28
c-6 -6 -36 9 -36 18 0 5 9 4 20 -3 10 -7 18 -14 16 -15z m435 -200 c13 -16 12
-17 -3 -4 -10 7 -18 15 -18 17 0 8 8 3 21 -13z m-701 -13 c0 -5 -7 -10 -16
-10 -8 0 -12 5 -9 10 3 6 10 10 16 10 5 0 9 -4 9 -10z m2156 -897 c52 -51 94
-98 94 -105 0 -7 -45 32 -100 87 -64 63 -100 107 -99 120 0 13 2 15 6 6 3 -8
48 -56 99 -108z"/>
<path d="M8061 12683 c0 -4 4 -17 9 -28 8 -19 9 -19 9 2 1 12 -3 25 -9 28 -5
3 -10 3 -9 -2z"/>
<path d="M8205 12570 c3 -5 8 -10 11 -10 2 0 4 5 4 10 0 6 -5 10 -11 10 -5 0
-7 -4 -4 -10z"/>
<path d="M8290 12531 c0 -5 7 -11 15 -15 8 -3 15 -1 15 3 0 5 -7 11 -15 15 -8
3 -15 1 -15 -3z"/>
<path d="M8380 12450 c0 -5 5 -10 11 -10 5 0 7 5 4 10 -3 6 -8 10 -11 10 -2 0
-4 -4 -4 -10z"/>
<path d="M8430 12410 c0 -5 5 -10 10 -10 6 0 10 5 10 10 0 6 -4 10 -10 10 -5
0 -10 -4 -10 -10z"/>
<path d="M8625 12260 c-3 -5 -1 -10 4 -10 6 0 11 5 11 10 0 6 -2 10 -4 10 -3
0 -8 -4 -11 -10z"/>
<path d="M8615 12220 c10 -11 20 -20 23 -20 3 0 -3 9 -13 20 -10 11 -20 20
-23 20 -3 0 3 -9 13 -20z"/>
<path d="M7510 12270 c-18 -12 -2 -12 25 0 13 6 15 9 5 9 -8 0 -22 -4 -30 -9z"/>
<path d="M8565 12190 c10 -11 20 -20 23 -20 3 0 -3 9 -13 20 -10 11 -20 20
-23 20 -3 0 3 -9 13 -20z"/>
<path d="M7717 12150 c-76 -14 -176 -49 -252 -88 -103 -53 -257 -210 -312
-318 -68 -130 -87 -215 -87 -374 0 -154 22 -262 79 -387 94 -203 229 -347 413
-437 144 -71 190 -81 367 -80 156 0 162 1 248 33 240 91 421 293 487 546 29
111 37 294 17 406 -60 334 -300 596 -623 679 -89 23 -264 34 -337 20z m66 -47
c-7 -2 -19 -2 -25 0 -7 3 -2 5 12 5 14 0 19 -2 13 -5z m130 0 c-7 -2 -21 -2
-30 0 -10 3 -4 5 12 5 17 0 24 -2 18 -5z m-286 -29 c-3 -3 -12 -4 -19 -1 -8 3
-5 6 6 6 11 1 17 -2 13 -5z m511 -146 c15 -15 16 -100 1 -151 -6 -22 -8 -41
-6 -44 3 -2 19 3 36 11 39 21 48 20 61 -5 10 -17 6 -25 -25 -55 -20 -19 -43
-34 -50 -34 -19 0 -75 -49 -75 -66 0 -17 20 -17 84 0 27 7 59 11 72 8 30 -5
40 -33 18 -49 -21 -15 -138 -59 -180 -68 -39 -8 -56 -26 -79 -88 -22 -59 -15
-69 60 -77 71 -8 96 4 168 80 60 63 90 79 112 60 22 -18 18 -34 -19 -83 -57
-75 -64 -97 -30 -97 6 0 40 21 73 46 86 64 114 49 70 -38 -22 -44 -16 -58 27
-58 24 0 67 -37 61 -53 -2 -7 -26 -12 -60 -12 -31 0 -57 -2 -58 -5 0 -3 5 -17
11 -32 13 -29 8 -58 -11 -58 -6 0 -36 26 -67 59 -32 32 -68 62 -80 66 -22 6
-23 5 -17 -17 4 -12 18 -43 30 -68 34 -68 49 -120 38 -131 -17 -17 -68 36
-127 129 -31 48 -65 93 -77 100 -12 8 -46 16 -75 19 -51 6 -54 5 -54 -17 0
-13 8 -47 17 -77 18 -57 47 -84 107 -99 31 -8 105 -54 125 -78 30 -36 -17 -46
-89 -21 -58 21 -70 19 -70 -9 0 -29 20 -52 63 -70 37 -16 87 -60 87 -77 0 -11
-52 -10 -100 2 -13 3 -14 -8 -12 -68 3 -66 2 -73 -16 -73 -20 0 -34 24 -52 90
l-11 42 -34 -36 c-60 -66 -75 -44 -40 57 26 76 32 117 16 117 -5 0 -34 -31
-65 -70 -31 -38 -61 -70 -65 -70 -5 0 -14 6 -20 14 -15 18 7 83 60 176 l41 70
-16 73 c-23 102 -24 102 -78 68 -26 -16 -51 -38 -56 -48 -5 -10 -13 -63 -16
-118 -8 -108 -20 -155 -42 -155 -21 0 -33 35 -42 115 -6 60 -10 70 -26 70 -20
0 -33 -35 -50 -137 -5 -24 -12 -38 -22 -38 -16 0 -44 57 -44 91 0 11 -3 19 -8
17 -4 -1 -32 -15 -62 -30 -54 -27 -100 -29 -100 -5 0 5 23 35 52 65 l51 54
-36 34 c-40 36 -40 35 -31 58 5 13 15 11 66 -15 33 -17 71 -29 85 -27 27 3 56
38 38 44 -6 2 -44 23 -85 47 -63 35 -76 47 -78 71 -3 28 -2 29 32 23 19 -3 75
-22 123 -41 48 -20 94 -36 103 -36 8 0 38 13 65 28 67 36 68 56 8 108 -60 51
-90 67 -110 60 -9 -4 -50 -13 -91 -22 -81 -17 -137 -12 -146 11 -7 19 23 38
104 65 81 27 83 29 69 46 -7 8 -32 14 -63 15 -99 1 -141 12 -144 36 -3 19 4
24 43 34 25 6 48 16 51 21 3 5 -14 30 -39 57 -42 45 -65 86 -54 97 7 8 107
-44 141 -73 33 -28 43 -22 48 27 3 36 21 48 46 31 8 -4 18 -41 23 -82 9 -74
32 -119 44 -88 3 9 11 49 18 90 9 52 17 74 27 74 25 0 40 -49 49 -164 9 -117
21 -147 66 -177 32 -21 57 -15 74 20 26 54 25 99 -2 157 -26 55 -57 158 -57
191 0 41 36 13 90 -72 66 -104 91 -76 46 54 -14 41 -26 81 -26 90 0 28 38 17
66 -19 14 -19 30 -35 34 -35 4 0 13 21 20 48 13 53 39 112 49 112 4 0 12 -5
19 -12z"/>
<path d="M7006 11685 c-9 -26 -7 -32 5 -12 6 10 9 21 6 23 -2 3 -7 -2 -11 -11z"/>
<path d="M7051 11554 c0 -11 3 -14 6 -6 3 7 2 16 -1 19 -3 4 -6 -2 -5 -13z"/>
<path d="M2110 6166 c0 -2 7 -7 16 -10 8 -3 12 -2 9 4 -6 10 -25 14 -25 6z"/>
<path d="M2150 6159 c0 -5 5 -7 10 -4 6 3 10 8 10 11 0 2 -4 4 -10 4 -5 0 -10
-5 -10 -11z"/>
<path d="M2300 5450 c-12 -8 -10 -10 8 -10 13 0 20 4 17 10 -7 12 -6 12 -25 0z"/>
<path d="M8225 13150 c-25 -11 1 -11 35 0 20 6 21 8 5 8 -11 0 -29 -3 -40 -8z"/>
<path d="M8178 13133 c7 -3 16 -2 19 1 4 3 -2 6 -13 5 -11 0 -14 -3 -6 -6z"/>
<path d="M8085 13110 c-13 -5 -14 -9 -5 -9 8 0 24 4 35 9 13 5 14 9 5 9 -8 0
-24 -4 -35 -9z"/>
<path d="M7970 13075 c-36 -13 -60 -24 -54 -24 5 -1 41 10 80 23 38 14 62 24
54 24 -8 0 -44 -10 -80 -23z"/>
<path d="M9462 12535 c0 -16 2 -22 5 -12 2 9 2 23 0 30 -3 6 -5 -1 -5 -18z"/>
<path d="M9452 12365 c0 -16 2 -22 5 -12 2 9 2 23 0 30 -3 6 -5 -1 -5 -18z"/>
<path d="M9442 12215 c0 -16 2 -22 5 -12 2 9 2 23 0 30 -3 6 -5 -1 -5 -18z"/>
<path d="M9432 12105 c0 -16 2 -22 5 -12 2 9 2 23 0 30 -3 6 -5 -1 -5 -18z"/>
<path d="M9422 12025 c0 -16 2 -22 5 -12 2 9 2 23 0 30 -3 6 -5 -1 -5 -18z"/>
<path d="M9402 11870 c0 -14 2 -19 5 -12 2 6 2 18 0 25 -3 6 -5 1 -5 -13z"/>
<path d="M9391 11814 c0 -11 3 -14 6 -6 3 7 2 16 -1 19 -3 4 -6 -2 -5 -13z"/>
<path d="M9381 11754 c0 -11 3 -14 6 -6 3 7 2 16 -1 19 -3 4 -6 -2 -5 -13z"/>
<path d="M9371 11704 c0 -11 3 -14 6 -6 3 7 2 16 -1 19 -3 4 -6 -2 -5 -13z"/>
<path d="M9362 11660 c0 -14 2 -19 5 -12 2 6 2 18 0 25 -3 6 -5 1 -5 -13z"/>
<path d="M9351 11614 c0 -11 3 -14 6 -6 3 7 2 16 -1 19 -3 4 -6 -2 -5 -13z"/>
<path d="M9341 11564 c0 -11 3 -14 6 -6 3 7 2 16 -1 19 -3 4 -6 -2 -5 -13z"/>
<path d="M9196 11524 c-9 -24 -2 -26 12 -4 7 11 8 20 3 20 -5 0 -12 -7 -15
-16z"/>
<path d="M9331 11524 c0 -11 3 -14 6 -6 3 7 2 16 -1 19 -3 4 -6 -2 -5 -13z"/>
<path d="M9316 11474 c-4 -14 -5 -28 -3 -31 3 -2 8 8 11 23 4 14 5 28 3 31 -3
2 -8 -8 -11 -23z"/>
<path d="M9216 11463 c-6 -14 -5 -15 5 -6 7 7 10 15 7 18 -3 3 -9 -2 -12 -12z"/>
<path d="M9301 11414 c0 -11 3 -14 6 -6 3 7 2 16 -1 19 -3 4 -6 -2 -5 -13z"/>
<path d="M9260 11404 c0 -8 5 -12 10 -9 6 3 10 10 10 16 0 5 -4 9 -10 9 -5 0
-10 -7 -10 -16z"/>
<path d="M9286 11364 c-4 -14 -5 -28 -3 -31 3 -2 8 8 11 23 4 14 5 28 3 31 -3
2 -8 -8 -11 -23z"/>
<path d="M9267 11301 c-4 -17 -3 -21 5 -13 5 5 8 16 6 23 -3 8 -7 3 -11 -10z"/>
<path d="M9217 11128 c-9 -29 -15 -54 -13 -56 2 -2 12 20 21 48 9 28 15 53 13
55 -2 3 -12 -19 -21 -47z"/>
<path d="M3680 6069 c0 -5 5 -7 10 -4 6 3 10 8 10 11 0 2 -4 4 -10 4 -5 0 -10
-5 -10 -11z"/>
<path d="M6404 4921 c-2 -2 -4 -109 -4 -238 l0 -233 30 0 c23 0 30 4 30 20 0
20 1 20 31 -2 43 -32 132 -32 177 1 48 33 66 76 67 151 0 77 -16 115 -65 148
-46 31 -137 28 -173 -6 -30 -28 -38 -28 -36 1 1 12 1 55 1 94 -2 72 -2 73 -28
71 -14 -2 -27 -4 -30 -7z m216 -198 c35 -20 50 -52 50 -106 0 -68 -41 -116
-101 -117 -104 -1 -143 143 -58 215 35 29 69 32 109 8z"/>
<path d="M3657 4913 c-4 -3 -7 -109 -7 -235 l0 -228 35 0 35 0 0 90 c0 79 2
90 18 90 108 3 169 20 203 56 20 22 24 36 24 94 0 82 -21 112 -90 129 -48 12
-208 15 -218 4z m216 -73 c33 -26 41 -63 23 -99 -18 -34 -60 -51 -127 -51
l-49 0 0 85 0 85 64 0 c48 0 69 -5 89 -20z"/>
<path d="M6138 4913 c-28 -4 -28 -4 -28 -89 0 -49 -4 -84 -10 -84 -5 0 -10 4
-10 10 0 13 -49 37 -80 40 -62 5 -81 -1 -124 -42 -52 -51 -64 -98 -46 -182 19
-93 101 -144 191 -117 21 6 43 21 49 31 15 28 30 25 30 -5 0 -21 5 -25 30 -25
l30 0 0 235 c0 129 -1 234 -2 234 -2 -1 -15 -4 -30 -6z m-81 -193 c38 -23 59
-80 49 -133 -13 -68 -97 -109 -158 -76 -43 23 -61 115 -33 169 31 60 85 75
142 40z"/>
<path d="M7254 4901 c-2 -2 -4 -17 -4 -33 0 -27 1 -28 56 -28 l57 0 -7 -37
c-3 -21 -15 -101 -26 -178 -12 -77 -23 -148 -26 -158 -5 -16 -1 -18 32 -15
l38 3 28 185 c15 102 27 188 28 192 0 4 28 8 63 10 61 3 62 4 65 33 l3 30
-151 0 c-84 0 -153 -2 -156 -4z"/>
<path d="M8695 4873 c-4 -21 -11 -61 -17 -90 l-11 -52 -29 24 c-72 61 -198 4
-228 -103 -25 -91 -3 -174 54 -197 50 -21 85 -18 131 10 49 30 58 31 50 5 -5
-17 -2 -20 24 -20 28 0 30 3 35 43 4 23 17 120 31 216 14 96 25 181 25 188 0
8 -12 13 -30 13 -26 0 -30 -4 -35 -37z m-57 -179 c27 -31 28 -74 2 -132 -30
-66 -103 -87 -152 -44 -27 23 -24 110 5 153 43 63 100 73 145 23z"/>
<path d="M8996 4685 c-61 -121 -112 -223 -114 -227 -2 -5 14 -8 35 -8 38 0 41
2 64 53 l24 52 84 3 c46 2 88 -1 93 -6 5 -5 12 -28 16 -53 7 -42 9 -44 45 -47
20 -2 37 -1 37 3 0 11 -70 351 -82 399 -13 48 -14 49 -52 50 l-38 1 -112 -220z
m162 36 c10 -55 16 -103 14 -106 -8 -8 -144 -6 -140 3 24 53 103 210 105 208
2 -2 11 -49 21 -105z"/>
<path d="M9415 4900 c-5 -8 -27 -143 -53 -322 l-19 -128 33 0 c38 0 35 -6 54
125 7 44 20 132 31 197 10 64 19 120 19 125 0 11 -59 13 -65 3z"/>
<path d="M4141 4790 c-106 -24 -161 -149 -112 -256 25 -55 69 -84 134 -91 217
-21 258 313 42 349 -16 3 -45 2 -64 -2z m88 -65 c38 -19 55 -63 49 -127 -7
-66 -39 -98 -99 -98 -31 0 -47 7 -70 29 -24 25 -29 37 -29 81 0 108 66 159
149 115z"/>
<path d="M4370 4786 c0 -2 11 -37 24 -77 13 -41 36 -116 52 -166 27 -92 28
-93 59 -93 l32 0 34 125 c18 68 37 121 40 117 8 -9 69 -211 69 -228 0 -9 12
-14 34 -14 l35 0 41 133 c23 72 46 145 51 161 13 42 12 46 -15 46 -33 0 -40
-12 -71 -130 -15 -58 -30 -109 -33 -114 -3 -5 -22 46 -42 115 -36 122 -36 124
-67 127 -34 3 -26 21 -80 -168 -23 -80 -25 -86 -28 -75 -2 6 -18 63 -35 128
l-32 117 -34 0 c-19 0 -34 -2 -34 -4z"/>
<path d="M4974 4781 c-28 -12 -82 -76 -90 -107 -12 -47 1 -139 24 -171 31 -43
97 -68 159 -58 37 5 56 15 88 48 l40 42 -32 3 c-20 2 -43 -4 -60 -17 -62 -44
-142 -18 -159 52 l-6 27 131 0 c129 0 131 0 131 23 0 42 -21 98 -49 129 -25
29 -35 32 -92 35 -35 1 -73 -1 -85 -6z m131 -66 c14 -13 25 -33 25 -45 0 -19
-6 -20 -95 -20 l-96 0 16 29 c33 64 106 81 150 36z"/>
<path d="M5260 4621 l0 -171 30 0 30 0 0 105 c0 140 17 175 86 175 20 0 24 5
24 30 0 25 -4 30 -24 30 -14 0 -38 -11 -55 -25 l-30 -26 -3 23 c-2 17 -11 24
-30 26 l-28 3 0 -170z"/>
<path d="M5554 4780 c-33 -13 -82 -77 -90 -116 -9 -49 1 -128 21 -158 21 -32
91 -66 136 -66 61 1 149 55 149 92 0 14 -57 8 -70 -7 -7 -8 -28 -19 -47 -24
-62 -17 -123 22 -123 78 0 20 5 21 125 21 l125 0 0 38 c0 87 -66 152 -154 151
-28 0 -60 -4 -72 -9z m117 -50 c16 -9 49 -58 49 -75 0 -3 -43 -5 -95 -5 -108
0 -118 9 -66 61 31 31 75 38 112 19z"/>
<path d="M7011 4768 c-5 -13 -23 -68 -41 -123 -18 -55 -36 -103 -39 -107 -3
-4 -21 37 -39 90 -56 162 -50 152 -88 152 -19 0 -34 -4 -34 -9 0 -5 11 -36 24
-68 38 -90 96 -252 96 -267 0 -28 -41 -66 -71 -66 -26 0 -29 -3 -29 -30 0 -28
2 -30 39 -30 64 0 83 24 146 187 32 82 71 179 86 217 16 37 29 70 29 72 0 2
-16 4 -35 4 -28 0 -37 -5 -44 -22z"/>
<path d="M7550 4771 c0 -4 -9 -75 -20 -156 -11 -81 -20 -152 -20 -156 0 -5 13
-9 29 -9 33 0 31 -5 52 130 16 107 37 139 90 140 24 0 38 19 39 53 0 17 -51 5
-78 -18 -17 -14 -32 -25 -35 -25 -2 0 -2 11 1 25 4 22 1 25 -27 25 -17 0 -31
-4 -31 -9z"/>
<path d="M7828 4766 c-90 -40 -134 -155 -94 -249 27 -65 112 -93 191 -63 41
16 85 56 85 77 0 17 -51 9 -81 -13 -60 -45 -131 -20 -145 50 l-6 32 126 0 126
0 -1 33 c-2 114 -99 179 -201 133z m109 -58 c22 -20 32 -57 16 -59 -91 -7
-154 -6 -158 2 -4 5 9 25 28 44 41 41 79 46 114 13z"/>
<path d="M8107 4774 c-4 -4 -7 -21 -7 -37 0 -29 -26 -221 -35 -264 -5 -20 -1
-23 28 -23 l33 0 14 98 c18 136 40 172 104 172 41 0 49 -29 36 -128 -6 -47
-14 -98 -17 -114 -5 -26 -3 -28 26 -28 35 0 35 0 51 123 20 157 9 194 -65 204
-32 4 -48 0 -77 -21 -38 -25 -38 -25 -35 -3 1 17 -4 23 -23 25 -14 2 -29 0
-33 -4z"/>
</g>
</svg>
