<svg width="113" height="113" viewBox="0 0 113 113" fill="none" xmlns="http://www.w3.org/2000/svg">
<g id="solar:graph-down-broken">
<g id="Group">
<path id="Vector" d="M32.8418 47.4656L43.5425 58.1662C44.4176 59.0411 45.6044 59.5326 46.8418 59.5326C48.0792 59.5326 49.266 59.0411 50.1411 58.1662L57.5425 50.7649C58.4176 49.89 59.6044 49.3986 60.8418 49.3986C62.0792 49.3986 63.266 49.89 64.1411 50.7649L79.5085 66.1322M79.5085 66.1322V54.4656M79.5085 66.1322H67.8418" stroke="url(#paint0_linear_3001_4140)" stroke-width="7" stroke-linecap="round" stroke-linejoin="round"/>
<path id="Vector_2" d="M102.842 56.799C102.842 78.7977 102.842 89.797 96.0055 96.629C89.1781 103.466 78.1741 103.466 56.1755 103.466C34.1768 103.466 23.1775 103.466 16.3408 96.629C9.50879 89.8017 9.50879 78.7977 9.50879 56.799C9.50879 34.8003 9.50879 23.801 16.3408 16.9643C23.1821 10.1323 34.1768 10.1323 56.1755 10.1323C78.1741 10.1323 89.1735 10.1323 96.0055 16.9643C100.551 21.5097 102.072 27.8983 102.585 38.1323" stroke="url(#paint1_linear_3001_4140)" stroke-width="7" stroke-linecap="round"/>
</g>
</g>
<defs>
<linearGradient id="paint0_linear_3001_4140" x1="30.7966" y1="41.6322" x2="62.2983" y2="81.1799" gradientUnits="userSpaceOnUse">
<stop offset="0.015" stop-color="white"/>
<stop offset="0.375847" stop-color="#9AE0F1" stop-opacity="0.8"/>
<stop offset="0.652133" stop-color="#8C8ED2"/>
<stop offset="0.965" stop-color="white"/>
</linearGradient>
<linearGradient id="paint1_linear_3001_4140" x1="5.41848" y1="-19.0343" x2="135.034" y2="46.0541" gradientUnits="userSpaceOnUse">
<stop offset="0.015" stop-color="white"/>
<stop offset="0.375847" stop-color="#9AE0F1" stop-opacity="0.8"/>
<stop offset="0.652133" stop-color="#8C8ED2"/>
<stop offset="0.965" stop-color="white"/>
</linearGradient>
</defs>
</svg>
